# xmcd CD database file
#
# Track frame offsets:
#	225
#	15499
#	32609
#	53052
#	71330
#	83182
#	102482
#	122496
#	139258
#	156690
#	173559
#
# Disc length: 2549 seconds
#
# Revision: 0
# Processed by: cddbd v1.4PL0 Copyright (c) Steve Scherf et al.
# Submitted via: CDex 1.50beta8
#
DISCID=8c09f20b
DTITLE=Cafe Orchestra - Feelgood!
DYEAR=1999
DGENRE=Jazz
TTITLE0=Reconnection of your Heart
TTITLE1=Salsa Samba
TTITLE2=Two Gypsys
TTITLE3=Answer
TTITLE4=Morning Lullaby
TTITLE5=Haute Couture
TTITLE6=Tango for Tia
TTITLE7=Crazy Harmony
TTITLE8=Megan's Bittersweet Waltz
TTITLE9=Cafe Cafe
TTITLE10=Brand New Day
EXTD=YEAR: 1999
EXTT0=
EXTT1=
EXTT2=
EXTT3=
EXTT4=
EXTT5=
EXTT6=
EXTT7=
EXTT8=
EXTT9=
EXTT10=
PLAYORDER=
